<svg width="20" height="20" viewBox="0 0 20 20" fill="none" xmlns="http://www.w3.org/2000/svg">
<g clip-path="url(#clip0_87_71)">
<path d="M2.22222 2.77778C1.63285 2.77778 1.06762 3.0119 0.650874 3.42865C0.234126 3.8454 0 4.41063 0 5L0 15C0 15.5894 0.234126 16.1546 0.650874 16.5713C1.06762 16.9881 1.63285 17.2222 2.22222 17.2222H5.55556V2.77778H2.22222ZM17.7778 2.77778H14.4444V17.2222H17.7778C18.3671 17.2222 18.9324 16.9881 19.3491 16.5713C19.7659 16.1546 20 15.5894 20 15V5C20 4.41063 19.7659 3.8454 19.3491 3.42865C18.9324 3.0119 18.3671 2.77778 17.7778 2.77778Z" fill="#D52B1E"/>
<path d="M5.55554 2.77778H14.4444V17.2222H5.55554V2.77778Z" fill="#EEEEEE"/>
<path d="M10.3417 12.285C11.0073 12.3622 11.6039 12.4317 12.2689 12.5078L12.0995 11.9511C12.087 11.9032 12.0887 11.8527 12.1044 11.8058C12.1201 11.7588 12.1491 11.7175 12.1878 11.6867L14.1206 10.1122L13.7206 9.92389C13.5445 9.86111 13.5928 9.76167 13.6567 9.52278L13.9517 8.44722L12.8289 8.68444C12.7195 8.70111 12.6467 8.63167 12.63 8.565L12.485 8.05889L11.5973 9.05555C11.4711 9.21555 11.2156 9.21555 11.295 8.84667L11.6745 6.82778L11.165 7.09167C11.0223 7.17167 10.8795 7.185 10.8 7.04222L10.0973 5.72778V5.76056V5.72778L9.39448 7.04222C9.31448 7.185 9.1717 7.17167 9.02892 7.09167L8.52003 6.82778L8.89947 8.84667C8.97948 9.21555 8.72336 9.21555 8.59725 9.05555L7.70948 8.05944L7.56503 8.56556C7.54836 8.63222 7.47503 8.70167 7.36559 8.685L6.24281 8.44778L6.53781 9.52333C6.60059 9.76222 6.64948 9.86167 6.47336 9.92444L6.07336 10.1128L8.00614 11.6872C8.08281 11.7467 8.1217 11.8539 8.09392 11.9517L7.92448 12.5083L9.85225 12.2856C9.91114 12.2856 9.95003 12.3183 9.94948 12.3861L9.83059 14.4439H10.3617L10.2434 12.3861C10.2445 12.3178 10.2828 12.285 10.3417 12.285Z" fill="#D52B1E"/>
</g>
<defs>
<clipPath id="clip0_87_71">
<rect width="20" height="20" fill="white"/>
</clipPath>
</defs>
</svg>
