<svg width="16" height="16" viewBox="0 0 16 16" fill="none" xmlns="http://www.w3.org/2000/svg">
<path d="M8 1.33333C9.81133 1.33333 10.0373 1.34 10.748 1.37333C11.458 1.40667 11.9413 1.518 12.3667 1.68333C12.8067 1.85267 13.1773 2.082 13.548 2.452C13.887 2.78526 14.1493 3.18839 14.3167 3.63333C14.4813 4.058 14.5933 4.542 14.6267 5.252C14.658 5.96267 14.6667 6.18867 14.6667 8C14.6667 9.81133 14.66 10.0373 14.6267 10.748C14.5933 11.458 14.4813 11.9413 14.3167 12.3667C14.1498 12.8119 13.8874 13.2151 13.548 13.548C13.2146 13.8869 12.8115 14.1492 12.3667 14.3167C11.942 14.4813 11.458 14.5933 10.748 14.6267C10.0373 14.658 9.81133 14.6667 8 14.6667C6.18866 14.6667 5.96266 14.66 5.25199 14.6267C4.54199 14.5933 4.05866 14.4813 3.63333 14.3167C3.18821 14.1496 2.78501 13.8873 2.45199 13.548C2.11293 13.2148 1.85062 12.8116 1.68333 12.3667C1.51799 11.942 1.40666 11.458 1.37333 10.748C1.34199 10.0373 1.33333 9.81133 1.33333 8C1.33333 6.18867 1.33999 5.96267 1.37333 5.252C1.40666 4.54133 1.51799 4.05867 1.68333 3.63333C1.85015 3.18812 2.11253 2.78488 2.45199 2.452C2.78511 2.11282 3.18828 1.85049 3.63333 1.68333C4.05866 1.518 4.54133 1.40667 5.25199 1.37333C5.96266 1.342 6.18866 1.33333 8 1.33333ZM8 4.66667C7.11594 4.66667 6.26809 5.01786 5.64297 5.64298C5.01785 6.2681 4.66666 7.11594 4.66666 8C4.66666 8.88405 5.01785 9.7319 5.64297 10.357C6.26809 10.9821 7.11594 11.3333 8 11.3333C8.88405 11.3333 9.7319 10.9821 10.357 10.357C10.9821 9.7319 11.3333 8.88405 11.3333 8C11.3333 7.11594 10.9821 6.2681 10.357 5.64298C9.7319 5.01786 8.88405 4.66667 8 4.66667ZM12.3333 4.5C12.3333 4.27899 12.2455 4.06702 12.0893 3.91074C11.933 3.75446 11.721 3.66667 11.5 3.66667C11.279 3.66667 11.067 3.75446 10.9107 3.91074C10.7545 4.06702 10.6667 4.27899 10.6667 4.5C10.6667 4.72101 10.7545 4.93298 10.9107 5.08926C11.067 5.24554 11.279 5.33333 11.5 5.33333C11.721 5.33333 11.933 5.24554 12.0893 5.08926C12.2455 4.93298 12.3333 4.72101 12.3333 4.5ZM8 6C8.53043 6 9.03914 6.21071 9.41421 6.58579C9.78928 6.96086 10 7.46957 10 8C10 8.53043 9.78928 9.03914 9.41421 9.41421C9.03914 9.78929 8.53043 10 8 10C7.46956 10 6.96085 9.78929 6.58578 9.41421C6.21071 9.03914 6 8.53043 6 8C6 7.46957 6.21071 6.96086 6.58578 6.58579C6.96085 6.21071 7.46956 6 8 6Z" fill="white" fill-opacity="0.7"/>
</svg>
