<svg width="16" height="16" viewBox="0 0 16 16" fill="none" xmlns="http://www.w3.org/2000/svg">
<path d="M12.2427 11.576L8 15.8187L3.75734 11.576C2.91823 10.7369 2.34679 9.66778 2.11529 8.5039C1.88378 7.34002 2.0026 6.13362 2.45673 5.03727C2.91086 3.94092 3.6799 3.00385 4.66659 2.34456C5.65328 1.68528 6.81332 1.33339 8 1.33339C9.18669 1.33339 10.3467 1.68528 11.3334 2.34456C12.3201 3.00385 13.0891 3.94092 13.5433 5.03727C13.9974 6.13362 14.1162 7.34002 13.8847 8.5039C13.6532 9.66778 13.0818 10.7369 12.2427 11.576ZM8 8.66667C8.35362 8.66667 8.69276 8.52619 8.94281 8.27614C9.19286 8.02609 9.33334 7.68696 9.33334 7.33333C9.33334 6.97971 9.19286 6.64057 8.94281 6.39052C8.69276 6.14048 8.35362 6 8 6C7.64638 6 7.30724 6.14048 7.05719 6.39052C6.80715 6.64057 6.66667 6.97971 6.66667 7.33333C6.66667 7.68696 6.80715 8.02609 7.05719 8.27614C7.30724 8.52619 7.64638 8.66667 8 8.66667Z" fill="white" fill-opacity="0.7"/>
</svg>
