<svg width="16" height="16" viewBox="0 0 16 16" fill="none" xmlns="http://www.w3.org/2000/svg">
<path d="M8.00004 14.6667C4.31804 14.6667 1.33337 11.682 1.33337 8C1.33337 4.318 4.31804 1.33333 8.00004 1.33333C11.682 1.33333 14.6667 4.318 14.6667 8C14.6667 11.682 11.682 14.6667 8.00004 14.6667ZM7.33337 10V11.3333H8.66671V10H7.33337ZM8.66671 8.90333C9.20249 8.74185 9.66244 8.3933 9.96281 7.92116C10.2632 7.44902 10.384 6.8847 10.3032 6.33098C10.2224 5.77725 9.94545 5.27096 9.52272 4.9043C9.09999 4.53765 8.55962 4.33502 8.00004 4.33333C7.46061 4.33329 6.93782 4.5201 6.52057 4.86199C6.10332 5.20389 5.81738 5.67975 5.71137 6.20867L7.01937 6.47067C7.05649 6.28495 7.14559 6.1136 7.27628 5.97654C7.40698 5.83949 7.57392 5.74236 7.75766 5.69647C7.9414 5.65058 8.13439 5.65781 8.31419 5.71731C8.49398 5.77682 8.65318 5.88616 8.77326 6.03261C8.89334 6.17906 8.96937 6.35659 8.99249 6.54456C9.01562 6.73253 8.98489 6.9232 8.90389 7.09439C8.82288 7.26558 8.69493 7.41024 8.53492 7.51155C8.37491 7.61286 8.18943 7.66665 8.00004 7.66667C7.82323 7.66667 7.65366 7.7369 7.52864 7.86193C7.40361 7.98695 7.33337 8.15652 7.33337 8.33333V9.33333H8.66671V8.90333Z" fill="white" fill-opacity="0.7"/>
</svg>
