<svg width="20" height="20" viewBox="0 0 20 20" fill="none" xmlns="http://www.w3.org/2000/svg">
<rect width="20" height="20" fill="#4D4D4D"/>
<g id="Desktop">
<path d="M-5496 -1114C-5496 -1115.1 -5495.1 -1116 -5494 -1116H16862C16863.1 -1116 16864 -1115.1 16864 -1114V4985C16864 4986.1 16863.1 4987 16862 4987H-5494C-5495.1 4987 -5496 4986.1 -5496 4985V-1114Z" fill="#404040"/>
<g id="Desktop / Details" clip-path="url(#clip0_0_1)">
<rect width="1440" height="3352" transform="translate(-956 -1016)" fill="white"/>
<g id="CTA">
<rect x="-15.5" y="-207.5" width="391" height="451" rx="7.5" fill="#FFF7EB"/>
<g id="Content">
<g id="Frame 118">
<g id="Link">
<g id="ri:download-2-line">
<path id="Vector" d="M10.8332 8.33333H14.9998L9.99984 13.3333L4.99984 8.33333H9.1665V2.5H10.8332V8.33333ZM3.33317 15.8333H16.6665V10H18.3332V16.6667C18.3332 16.8877 18.2454 17.0996 18.0891 17.2559C17.9328 17.4122 17.7208 17.5 17.4998 17.5H2.49984C2.27882 17.5 2.06686 17.4122 1.91058 17.2559C1.7543 17.0996 1.6665 16.8877 1.6665 16.6667V10H3.33317V15.8333Z" fill="#3C7D46"/>
</g>
</g>
</g>
</g>
<rect x="-15.5" y="-207.5" width="391" height="451" rx="7.5" stroke="#FFEDD3"/>
</g>
</g>
<path d="M-5494 -1115H16862V-1117H-5494V-1115ZM16863 -1114V4985H16865V-1114H16863ZM16862 4986H-5494V4988H16862V4986ZM-5495 4985V-1114H-5497V4985H-5495ZM-5494 4986C-5494.55 4986 -5495 4985.55 -5495 4985H-5497C-5497 4986.66 -5495.66 4988 -5494 4988V4986ZM16863 4985C16863 4985.55 16862.6 4986 16862 4986V4988C16863.7 4988 16865 4986.66 16865 4985H16863ZM16862 -1115C16862.6 -1115 16863 -1114.55 16863 -1114H16865C16865 -1115.66 16863.7 -1117 16862 -1117V-1115ZM-5494 -1117C-5495.66 -1117 -5497 -1115.66 -5497 -1114H-5495C-5495 -1114.55 -5494.55 -1115 -5494 -1115V-1117Z" fill="white" fill-opacity="0.1"/>
</g>
<defs>
<clipPath id="clip0_0_1">
<rect width="1440" height="3352" fill="white" transform="translate(-956 -1016)"/>
</clipPath>
</defs>
</svg>
