<svg width="17" height="18" viewBox="0 0 17 18" fill="none" xmlns="http://www.w3.org/2000/svg">
<g clip-path="url(#clip0_134_17285)">
<path d="M16.9437 9.15597C16.9437 8.47314 16.8883 7.97486 16.7684 7.45813H8.97119V10.5401H13.548C13.4557 11.306 12.9575 12.4594 11.8501 13.2345L11.8346 13.3376L14.2999 15.2475L14.4707 15.2646C16.0394 13.8158 16.9437 11.6843 16.9437 9.15597Z" fill="#4285F4"/>
<path d="M8.97114 17.2761C11.2134 17.2761 13.0958 16.5379 14.4707 15.2645L11.8501 13.2344C11.1488 13.7235 10.2076 14.0649 8.97114 14.0649C6.77502 14.0649 4.91109 12.6162 4.24665 10.6139L4.14926 10.6222L1.58577 12.6061L1.55225 12.6993C2.91789 15.4121 5.72305 17.2761 8.97114 17.2761Z" fill="#34A853"/>
<path d="M4.24672 10.6139C4.0714 10.0971 3.96994 9.54346 3.96994 8.97139C3.96994 8.39925 4.0714 7.84562 4.2375 7.32889L4.23285 7.21884L1.63724 5.20306L1.55232 5.24346C0.989468 6.36922 0.666504 7.63341 0.666504 8.97139C0.666504 10.3094 0.989468 11.5735 1.55232 12.6992L4.24672 10.6139Z" fill="#FBBC05"/>
<path d="M8.97114 3.87782C10.5306 3.87782 11.5825 4.55142 12.1823 5.11433L14.526 2.82591C13.0866 1.48793 11.2134 0.666687 8.97114 0.666687C5.72305 0.666687 2.91789 2.53062 1.55225 5.24347L4.23742 7.3289C4.91109 5.32655 6.77502 3.87782 8.97114 3.87782Z" fill="#EB4335"/>
</g>
<defs>
<clipPath id="clip0_134_17285">
<rect width="16.285" height="16.6667" fill="white" transform="translate(0.666504 0.666687)"/>
</clipPath>
</defs>
</svg>
