<svg width="20" height="20" viewBox="0 0 20 20" fill="none" xmlns="http://www.w3.org/2000/svg">
<rect width="20" height="20" fill="#4D4D4D"/>
<g id="Desktop">
<path d="M-5496 -270C-5496 -271.105 -5495.1 -272 -5494 -272H16862C16863.1 -272 16864 -271.105 16864 -270V5829C16864 5830.1 16863.1 5831 16862 5831H-5494C-5495.1 5831 -5496 5830.1 -5496 5829V-270Z" fill="#404040"/>
<g id="Desktop / Details" clip-path="url(#clip0_0_1)">
<rect width="1440" height="3352" transform="translate(-956 -172)" fill="white"/>
<g id="CTA">
<g clip-path="url(#clip1_0_1)">
<rect x="-16" y="-16" width="392" height="628" rx="8" fill="white"/>
<g id="Info">
<g id="Frame 90">
<g id="More">
<g id="ri:heart-line">
<path id="Vector" d="M10.0009 3.77417C10.953 2.92184 12.1954 2.46656 13.4728 2.5019C14.7503 2.53724 15.9656 3.06051 16.8692 3.96417C17.772 4.86683 18.2953 6.08063 18.3319 7.35675C18.3684 8.63286 17.9155 9.87463 17.0659 10.8275L9.99919 17.9042L2.93419 10.8275C2.08357 9.87414 1.63019 8.6313 1.66713 7.35416C1.70408 6.07701 2.22854 4.86247 3.13285 3.95986C4.03716 3.05726 5.25269 2.53509 6.52991 2.50056C7.80712 2.46603 9.04909 2.92175 10.0009 3.77417ZM15.6892 5.14167C15.0872 4.54011 14.2778 4.19174 13.427 4.16803C12.5763 4.14432 11.7488 4.44707 11.1142 5.01417L10.0017 6.01251L8.88835 5.01501C8.25339 4.44723 7.42511 4.14415 6.57365 4.16801C5.72218 4.19188 4.91218 4.54088 4.31002 5.14334C3.71357 5.73976 3.3654 6.54012 3.33571 7.38309C3.30602 8.22606 3.59701 9.04893 4.15002 9.68584L10 15.545L15.85 9.68667C16.4036 9.04951 16.6949 8.22604 16.6651 7.38248C16.6352 6.53893 16.2865 5.73811 15.6892 5.14167Z" fill="#767676"/>
</g>
</g>
</g>
<path d="M376 319H-16V321H376V319Z" fill="#E6E6E6" mask="url(#path-5-inside-1_0_1)"/>
</g>
</g>
<rect x="-15.5" y="-15.5" width="391" height="627" rx="7.5" stroke="#E6E6E6"/>
</g>
</g>
<path d="M-5494 -271H16862V-273H-5494V-271ZM16863 -270V5829H16865V-270H16863ZM16862 5830H-5494V5832H16862V5830ZM-5495 5829V-270H-5497V5829H-5495ZM-5494 5830C-5494.55 5830 -5495 5829.55 -5495 5829H-5497C-5497 5830.66 -5495.66 5832 -5494 5832V5830ZM16863 5829C16863 5829.55 16862.6 5830 16862 5830V5832C16863.7 5832 16865 5830.66 16865 5829H16863ZM16862 -271C16862.6 -271 16863 -270.552 16863 -270H16865C16865 -271.657 16863.7 -273 16862 -273V-271ZM-5494 -273C-5495.66 -273 -5497 -271.657 -5497 -270H-5495C-5495 -270.552 -5494.55 -271 -5494 -271V-273Z" fill="white" fill-opacity="0.1"/>
</g>
<defs>
<clipPath id="clip0_0_1">
<rect width="1440" height="3352" fill="white" transform="translate(-956 -172)"/>
</clipPath>
<clipPath id="clip1_0_1">
<rect x="-16" y="-16" width="392" height="628" rx="8" fill="white"/>
</clipPath>
</defs>
</svg>
