<svg width="20" height="20" viewBox="0 0 20 20" fill="none" xmlns="http://www.w3.org/2000/svg">
<path d="M16.6667 5.00002H13.3333V3.33335C13.3333 2.89133 13.1577 2.4674 12.8452 2.15484C12.5326 1.84228 12.1087 1.66669 11.6667 1.66669H8.33334C7.40834 1.66669 6.66667 2.40835 6.66667 3.33335V5.00002H3.33334C2.40834 5.00002 1.66667 5.74169 1.66667 6.66669V15.8334C1.66667 16.2754 1.84227 16.6993 2.15483 17.0119C2.46739 17.3244 2.89131 17.5 3.33334 17.5H16.6667C17.1087 17.5 17.5326 17.3244 17.8452 17.0119C18.1577 16.6993 18.3333 16.2754 18.3333 15.8334V6.66669C18.3333 6.22466 18.1577 5.80074 17.8452 5.48818C17.5326 5.17561 17.1087 5.00002 16.6667 5.00002ZM8.33334 3.33335H11.6667V5.00002H8.33334V3.33335ZM10 7.50002C10.5525 7.50002 11.0824 7.71951 11.4731 8.11021C11.8638 8.50092 12.0833 9.03082 12.0833 9.58335C12.0833 10.1359 11.8638 10.6658 11.4731 11.0565C11.0824 11.4472 10.5525 11.6667 10 11.6667C9.44747 11.6667 8.91757 11.4472 8.52687 11.0565C8.13617 10.6658 7.91667 10.1359 7.91667 9.58335C7.91667 9.03082 8.13617 8.50092 8.52687 8.11021C8.91757 7.71951 9.44747 7.50002 10 7.50002ZM14.1667 15.8334H5.83334V14.7917C5.83334 13.6417 7.70001 12.7084 10 12.7084C12.3 12.7084 14.1667 13.6417 14.1667 14.7917V15.8334Z" fill="#1A1A1A"/>
</svg>
