<svg width="21" height="20" viewBox="0 0 21 20" fill="none" xmlns="http://www.w3.org/2000/svg">
<path d="M10.3333 12.5L11.625 9.62502L14.5 8.33335L11.625 7.04169L10.3333 4.16669L9.04167 7.04169L6.16667 8.33335L9.04167 9.62502L10.3333 12.5ZM2 18.3334V3.33335C2 2.87502 2.16333 2.48252 2.49 2.15585C2.81611 1.82974 3.20833 1.66669 3.66667 1.66669H17C17.4583 1.66669 17.8508 1.82974 18.1775 2.15585C18.5036 2.48252 18.6667 2.87502 18.6667 3.33335V13.3334C18.6667 13.7917 18.5036 14.1842 18.1775 14.5109C17.8508 14.837 17.4583 15 17 15H5.33333L2 18.3334Z" fill="#1A1A1A"/>
</svg>
