<svg width="21" height="20" viewBox="0 0 21 20" fill="none" xmlns="http://www.w3.org/2000/svg">
<path d="M9.83329 1.66669L15.915 3.56669C16.0846 3.61964 16.2328 3.72542 16.3381 3.86859C16.4433 4.01177 16.5 4.18483 16.5 4.36252V5.83335H18.1666C18.3876 5.83335 18.5996 5.92115 18.7559 6.07743C18.9122 6.23371 19 6.44567 19 6.66669V8.33335H8.16663V6.66669C8.16663 6.44567 8.25442 6.23371 8.4107 6.07743C8.56698 5.92115 8.77895 5.83335 8.99996 5.83335H14.8333V4.97502L9.83329 3.41169L4.83329 4.97502V11.145C4.83317 11.6552 4.95017 12.1586 5.17526 12.6165C5.40036 13.0743 5.72755 13.4744 6.13163 13.7859L6.28913 13.8992L9.83329 16.3167L12.985 14.1667H8.99996C8.77895 14.1667 8.56698 14.0789 8.4107 13.9226C8.25442 13.7663 8.16663 13.5544 8.16663 13.3334V10H19V13.3334C19 13.5544 18.9122 13.7663 18.7559 13.9226C18.5996 14.0789 18.3876 14.1667 18.1666 14.1667L15.4833 14.1675C15.1608 14.5925 14.7691 14.9675 14.3166 15.2759L9.83329 18.3334L5.34996 15.2767C4.67706 14.8179 4.12642 14.2017 3.74591 13.4816C3.3654 12.7616 3.16654 11.9594 3.16663 11.145V4.36252C3.16673 4.18497 3.22353 4.0121 3.32876 3.86909C3.43399 3.72609 3.58214 3.62043 3.75163 3.56752L9.83329 1.66669Z" fill="#1A1A1A"/>
</svg>
