<svg width="18" height="16" viewBox="0 0 18 16" fill="none" xmlns="http://www.w3.org/2000/svg">
<path d="M9.00082 1.77416C9.95296 0.921825 11.1954 0.466549 12.4728 0.501886C13.7502 0.537224 14.9656 1.06049 15.8692 1.96416C16.7719 2.86682 17.2953 4.08061 17.3318 5.35673C17.3684 6.63285 16.9154 7.87462 16.0658 8.82749L8.99916 15.9042L1.93415 8.82749C1.08353 7.87412 0.630157 6.63129 0.667101 5.35414C0.704046 4.077 1.22851 2.86245 2.13282 1.95985C3.03713 1.05725 4.25266 0.535079 5.52987 0.500547C6.80709 0.466014 8.04906 0.921738 9.00082 1.77416ZM14.6892 3.14166C14.0871 2.5401 13.2777 2.19172 12.427 2.16802C11.5763 2.14431 10.7487 2.44706 10.1142 3.01416L9.00166 4.01249L7.88832 3.01499C7.25336 2.44721 6.42508 2.14413 5.57362 2.168C4.72215 2.19186 3.91215 2.54087 3.30999 3.14332C2.71354 3.73974 2.36537 4.54011 2.33568 5.38307C2.30599 6.22604 2.59698 7.04892 3.14999 7.68582L8.99999 13.545L14.85 7.68666C15.4036 7.0495 15.6949 6.22603 15.6651 5.38247C15.6352 4.53891 15.2864 3.73809 14.6892 3.14166Z" fill="white"/>
</svg>
