<svg width="18" height="18" viewBox="0 0 18 18" fill="grey" xmlns="http://www.w3.org/2000/svg">
<path d="M9.00085 1.77417C9.95299 0.92184 11.1954 0.466564 12.4728 0.501901C13.7503 0.537239 14.9656 1.06051 15.8692 1.96417C16.772 2.86683 17.2953 4.08063 17.3319 5.35675C17.3684 6.63286 16.9155 7.87463 16.0659 8.82751L8.99919 15.9042L1.93419 8.82751C1.08357 7.87414 0.630188 6.6313 0.667132 5.35416C0.704076 4.07701 1.22854 2.86247 2.13285 1.95986C3.03716 1.05726 4.25269 0.535094 5.52991 0.500562C6.80712 0.46603 8.04909 0.921753 9.00085 1.77417ZM14.6892 3.14167C14.0872 2.54011 13.2778 2.19174 12.427 2.16803C11.5763 2.14432 10.7488 2.44707 10.1142 3.01417L9.00169 4.01251L7.88835 3.01501C7.25339 2.44723 6.42511 2.14415 5.57365 2.16801C4.72218 2.19188 3.91218 2.54088 3.31002 3.14334C2.71357 3.73976 2.3654 4.54012 2.33571 5.38309C2.30602 6.22606 2.59701 7.04893 3.15002 7.68584L9.00002 13.545L14.85 7.68667C15.4036 7.04951 15.6949 6.22604 15.6651 5.38248C15.6352 4.53893 15.2865 3.73811 14.6892 3.14167Z" fill="#767676"/>
</svg>
