<svg width="40" height="30" viewBox="0 0 40 30" fill="none" xmlns="http://www.w3.org/2000/svg">
<path d="M38 0.375H2C1.70163 0.375 1.41548 0.493526 1.2045 0.704505C0.993526 0.915483 0.875 1.20163 0.875 1.5V27C0.875 27.6962 1.15156 28.3639 1.64384 28.8562C2.13613 29.3484 2.80381 29.625 3.5 29.625H36.5C37.1962 29.625 37.8639 29.3484 38.3562 28.8562C38.8484 28.3639 39.125 27.6962 39.125 27V1.5C39.125 1.20163 39.0065 0.915483 38.7955 0.704505C38.5845 0.493526 38.2984 0.375 38 0.375ZM35.1125 2.625L20 16.4812L4.8875 2.625H35.1125ZM36.5 27.375H3.5C3.40054 27.375 3.30516 27.3355 3.23483 27.2652C3.16451 27.1948 3.125 27.0995 3.125 27V4.05L19.2313 18.825C19.4417 19.016 19.7158 19.1219 20 19.1219C20.2842 19.1219 20.5583 19.016 20.7688 18.825L36.875 4.05V27C36.875 27.0995 36.8355 27.1948 36.7652 27.2652C36.6948 27.3355 36.5995 27.375 36.5 27.375Z" fill="white"/>
</svg>
