<svg width="48" height="48" viewBox="0 0 48 48" fill="none" xmlns="http://www.w3.org/2000/svg">
<path d="M42 9.375H6C5.70163 9.375 5.41548 9.49353 5.2045 9.7045C4.99353 9.91548 4.875 10.2016 4.875 10.5V36C4.875 36.6962 5.15156 37.3639 5.64384 37.8562C6.13613 38.3484 6.80381 38.625 7.5 38.625H40.5C41.1962 38.625 41.8639 38.3484 42.3562 37.8562C42.8484 37.3639 43.125 36.6962 43.125 36V10.5C43.125 10.2016 43.0065 9.91548 42.7955 9.7045C42.5845 9.49353 42.2984 9.375 42 9.375ZM39.1125 11.625L24 25.4812L8.8875 11.625H39.1125ZM40.5 36.375H7.5C7.40054 36.375 7.30516 36.3355 7.23483 36.2652C7.16451 36.1948 7.125 36.0995 7.125 36V13.05L23.2313 27.825C23.4417 28.016 23.7158 28.1219 24 28.1219C24.2842 28.1219 24.5583 28.016 24.7688 27.825L40.875 13.05V36C40.875 36.0995 40.8355 36.1948 40.7652 36.2652C40.6948 36.3355 40.5995 36.375 40.5 36.375Z" fill="#3C7D46"/>
</svg>
