<svg width="40" height="40" viewBox="0 0 40 40" fill="none" xmlns="http://www.w3.org/2000/svg">
<path d="M20 0.875C16.2174 0.875 12.5198 1.99666 9.37473 4.09814C6.22964 6.19963 3.77834 9.18654 2.33081 12.6812C0.883286 16.1758 0.504548 20.0212 1.24249 23.7311C1.98043 27.441 3.80191 30.8487 6.47659 33.5234C9.15127 36.1981 12.559 38.0196 16.2689 38.7575C19.9788 39.4955 23.8242 39.1167 27.3188 37.6692C30.8135 36.2217 33.8004 33.7704 35.9019 30.6253C38.0033 27.4802 39.125 23.7826 39.125 20C39.1151 14.9308 37.097 10.072 33.5125 6.48753C29.928 2.90304 25.0692 0.884911 20 0.875ZM20 36.875C16.6624 36.875 13.3998 35.8853 10.6248 34.031C7.84968 32.1768 5.68677 29.5413 4.40954 26.4578C3.13231 23.3743 2.79813 19.9813 3.44926 16.7079C4.10038 13.4344 5.70757 10.4276 8.06758 8.06757C10.4276 5.70756 13.4344 4.10037 16.7079 3.44925C19.9813 2.79812 23.3743 3.1323 26.4578 4.40953C29.5413 5.68676 32.1768 7.84967 34.0311 10.6248C35.8853 13.3998 36.875 16.6624 36.875 20C36.87 24.474 35.0906 28.7633 31.927 31.9269C28.7634 35.0905 24.474 36.87 20 36.875ZM21.875 29.75C21.875 30.1208 21.765 30.4834 21.559 30.7917C21.353 31.1 21.0602 31.3404 20.7175 31.4823C20.3749 31.6242 19.9979 31.6613 19.6342 31.589C19.2705 31.5166 18.9364 31.3381 18.6742 31.0758C18.412 30.8136 18.2334 30.4795 18.161 30.1158C18.0887 29.7521 18.1258 29.3751 18.2677 29.0325C18.4096 28.6899 18.65 28.397 18.9583 28.191C19.2667 27.985 19.6292 27.875 20 27.875C20.4973 27.875 20.9742 28.0725 21.3258 28.4242C21.6775 28.7758 21.875 29.2527 21.875 29.75ZM26.375 16.25C26.3728 17.7457 25.8463 19.1934 24.8871 20.341C23.9278 21.4887 22.5966 22.2637 21.125 22.5312V23C21.125 23.2984 21.0065 23.5845 20.7955 23.7955C20.5845 24.0065 20.2984 24.125 20 24.125C19.7016 24.125 19.4155 24.0065 19.2045 23.7955C18.9935 23.5845 18.875 23.2984 18.875 23V21.5C18.875 21.2016 18.9935 20.9155 19.2045 20.7045C19.4155 20.4935 19.7016 20.375 20 20.375C20.8159 20.375 21.6134 20.1331 22.2917 19.6798C22.9701 19.2266 23.4988 18.5823 23.811 17.8286C24.1232 17.0748 24.2049 16.2454 24.0457 15.4453C23.8866 14.6451 23.4937 13.9101 22.9168 13.3332C22.3399 12.7563 21.6049 12.3634 20.8048 12.2043C20.0046 12.0451 19.1752 12.1268 18.4214 12.439C17.6677 12.7512 17.0235 13.2799 16.5702 13.9583C16.1169 14.6366 15.875 15.4342 15.875 16.25C15.875 16.5484 15.7565 16.8345 15.5455 17.0455C15.3345 17.2565 15.0484 17.375 14.75 17.375C14.4516 17.375 14.1655 17.2565 13.9545 17.0455C13.7435 16.8345 13.625 16.5484 13.625 16.25C13.625 14.5592 14.2967 12.9377 15.4922 11.7422C16.6877 10.5466 18.3093 9.875 20 9.875C21.6908 9.875 23.3123 10.5466 24.5078 11.7422C25.7034 12.9377 26.375 14.5592 26.375 16.25Z" fill="white"/>
</svg>
