<svg width="16" height="16" viewBox="0 0 16 16" fill="none" xmlns="http://www.w3.org/2000/svg">
<path d="M14.7747 3.77067C14.2657 3.9958 13.726 4.14365 13.1733 4.20933C13.7558 3.86096 14.1918 3.31268 14.4 2.66667C13.8533 2.992 13.254 3.22 12.6293 3.34333C12.2097 2.89439 11.6536 2.59664 11.0473 2.49639C10.441 2.39614 9.81863 2.49899 9.27685 2.78897C8.73507 3.07894 8.30426 3.53979 8.05141 4.09986C7.79857 4.65993 7.73784 5.28785 7.87867 5.886C6.77008 5.83044 5.68556 5.54235 4.69553 5.04044C3.7055 4.53854 2.83209 3.83403 2.132 2.97267C1.8842 3.3983 1.75397 3.88215 1.75467 4.37467C1.75467 5.34133 2.24667 6.19533 2.99467 6.69533C2.55201 6.6814 2.11909 6.56185 1.732 6.34667V6.38133C1.73214 7.02513 1.95492 7.64908 2.36257 8.14737C2.77022 8.64567 3.33766 8.98765 3.96867 9.11533C3.55775 9.22669 3.12688 9.24311 2.70867 9.16333C2.88658 9.71749 3.23334 10.2021 3.7004 10.5494C4.16746 10.8967 4.73142 11.0892 5.31334 11.1C4.73499 11.5542 4.07279 11.89 3.36459 12.0881C2.65639 12.2862 1.91609 12.3428 1.186 12.2547C2.46047 13.0743 3.94407 13.5094 5.45934 13.508C10.588 13.508 13.3927 9.25933 13.3927 5.57467C13.3927 5.45467 13.3893 5.33333 13.384 5.21467C13.9299 4.82011 14.4011 4.33135 14.7753 3.77133L14.7747 3.77067Z" fill="white" fill-opacity="0.7"/>
</svg>
